<svg width="1200" height="800" viewBox="0 0 1200 800" fill="none" xmlns="http://www.w3.org/2000/svg">
  <rect width="1200" height="800" rx="40" fill="#111827"/>
  <rect x="60" y="60" width="1080" height="40" rx="20" fill="#1F2937"/>
  <circle cx="110" cy="80" r="10" fill="#F97316"/>
  <circle cx="150" cy="80" r="10" fill="#FBBF24"/>
  <circle cx="190" cy="80" r="10" fill="#34D399"/>
  <rect x="80" y="140" width="1040" height="520" rx="32" fill="#0F172A"/>
  <rect x="120" y="180" width="320" height="26" rx="13" fill="#ffffff" fill-opacity="0.9"/>
  <rect x="120" y="230" width="280" height="20" rx="10" fill="#64748B"/>
  <rect x="120" y="270" width="520" height="24" rx="12" fill="#ffffff" fill-opacity="0.85"/>
  <rect x="120" y="310" width="620" height="24" rx="12" fill="#ffffff" fill-opacity="0.8"/>
  <rect x="120" y="350" width="420" height="24" rx="12" fill="#ffffff" fill-opacity="0.7"/>
  <rect x="120" y="400" width="980" height="28" rx="14" fill="#3B82F6"/>
  <rect x="120" y="440" width="920" height="18" rx="9" fill="#475569"/>
  <rect x="120" y="470" width="640" height="18" rx="9" fill="#475569"/>
  <rect x="120" y="510" width="820" height="18" rx="9" fill="#475569"/>
  <rect x="120" y="560" width="460" height="18" rx="9" fill="#64748B"/>
  <rect x="120" y="600" width="260" height="18" rx="9" fill="#64748B"/>
  <rect x="760" y="210" width="220" height="160" rx="24" fill="#1F2937"/>
  <rect x="780" y="235" width="180" height="110" rx="16" fill="#0F172A"/>
  <rect x="800" y="260" width="140" height="18" rx="9" fill="#38BDF8"/>
  <rect x="800" y="295" width="100" height="14" rx="7" fill="#94A3B8"/>
  <rect x="800" y="325" width="120" height="14" rx="7" fill="#94A3B8"/>
  <rect x="760" y="410" width="220" height="30" rx="15" fill="#10B981"/>
  <text x="100" y="120" fill="#E2E8F0" font-family="Inter, sans-serif" font-size="34" font-weight="700">NK Portfolio</text>
  <text x="780" y="480" fill="#E2E8F0" font-family="Inter, sans-serif" font-size="20" font-weight="600">Live</text>
</svg>