<svg xmlns="http://www.w3.org/2000/svg" viewBox="0 0 1366 768" role="img" aria-labelledby="title desc">
  <title id="title">Student Performance Analysis Dashboard</title>
  <desc id="desc">Subject-wise performance bars with study hours and attendance scatter charts.</desc>
  <rect width="1366" height="768" fill="#fbfbfb"/>
  <g font-family="Inter, Segoe UI, Arial, sans-serif" fill="#0f172a">
    <rect x="7" y="9" width="1352" height="48" fill="#fff" stroke="#9ca3af"/>
    <text x="17" y="44" font-size="31">Student Performance Analysis Dashboard</text>
    <line x1="7" y1="58" x2="1360" y2="58" stroke="#94a3b8" stroke-dasharray="8 4"/>

    <text x="17" y="91" font-size="26">Subject-Wise Performance</text>
    <line x1="81" y1="110" x2="81" y2="404" stroke="#cbd5e1"/>
    <line x1="13" y1="151" x2="1194" y2="151" stroke="#cbd5e1"/>
    <line x1="13" y1="365" x2="1194" y2="365" stroke="#cbd5e1"/>
    <line x1="452" y1="130" x2="452" y2="404" stroke="#cbd5e1"/>
    <line x1="823" y1="130" x2="823" y2="404" stroke="#cbd5e1"/>
    <line x1="1194" y1="130" x2="1194" y2="404" stroke="#cbd5e1"/>
    <g stroke="#edf2f7">
      <line x1="81" y1="203" x2="1194" y2="203"/><line x1="81" y1="258" x2="1194" y2="258"/><line x1="81" y1="311" x2="1194" y2="311"/>
    </g>
    <text x="618" y="127" font-size="15">Class</text>
    <text x="242" y="146" font-size="15" fill="#64748b">Class A</text>
    <text x="613" y="146" font-size="15" fill="#64748b">Class B</text>
    <text x="984" y="146" font-size="15" fill="#64748b">Class C</text>
    <g>
      <rect x="94" y="163" width="96" height="202" fill="#4f7fb0" stroke="#111827" stroke-width="2"/>
      <rect x="219" y="176" width="94" height="189" fill="#f0ddc7"/>
      <rect x="344" y="175" width="94" height="190" fill="#efd1d3"/>
      <rect x="467" y="162" width="93" height="203" fill="#cbd5df"/>
      <rect x="592" y="173" width="92" height="192" fill="#efdbc3"/>
      <rect x="715" y="176" width="94" height="189" fill="#efd1d3"/>
      <rect x="838" y="160" width="93" height="205" fill="#cbd5df"/>
      <rect x="963" y="183" width="92" height="182" fill="#f1dec7"/>
      <rect x="1086" y="173" width="92" height="192" fill="#efd1d3"/>
    </g>
    <g font-size="15" fill="#64748b">
      <text x="55" y="208">60</text><text x="55" y="262">40</text><text x="55" y="316">20</text><text x="66" y="360">0</text>
      <text x="83" y="384">Avg. English Ma..</text><text x="209" y="384">Avg. Math Marks</text><text x="333" y="384">Avg. Science M..</text>
      <text x="456" y="384">Avg. English Ma..</text><text x="581" y="384">Avg. Math Marks</text><text x="704" y="384">Avg. Science M..</text>
      <text x="827" y="384">Avg. English Ma..</text><text x="952" y="384">Avg. Math Marks</text><text x="1075" y="384">Avg. Science M..</text>
    </g>
    <text x="25" y="294" font-size="15" transform="rotate(-90 25 294)">Value</text>

    <g font-size="16">
      <text x="1204" y="77">Measure Names</text>
      <rect x="1206" y="86" width="14" height="14" fill="#4f7fb0"/><text x="1227" y="99" fill="#475569">Avg. English Ma..</text>
      <rect x="1206" y="108" width="14" height="14" fill="#f28e2b"/><text x="1227" y="121" fill="#475569">Avg. Math Marks</text>
      <rect x="1206" y="130" width="14" height="14" fill="#e15759"/><text x="1227" y="143" fill="#475569">Avg. Science Ma..</text>
      <text x="1204" y="170">Gender</text>
      <rect x="1206" y="180" width="14" height="14" fill="#4f7fb0"/><text x="1227" y="193" fill="#475569">Female</text>
      <rect x="1206" y="203" width="14" height="14" fill="#f28e2b"/><text x="1227" y="216" fill="#475569">Male</text>
      <text x="1204" y="243">Class</text>
      <rect x="1206" y="251" width="14" height="14" fill="#4f7fb0"/><text x="1227" y="264" fill="#475569">Class A</text>
    </g>

    <text x="17" y="444" font-size="26">Study Hours VS Marks</text>
    <line x1="77" y1="465" x2="1354" y2="465" stroke="#e5e7eb"/>
    <line x1="77" y1="519" x2="1354" y2="519" stroke="#e5e7eb"/>
    <g stroke="#edf2f7">
      <line x1="119" y1="465" x2="119" y2="519"/><line x1="197" y1="465" x2="197" y2="519"/><line x1="274" y1="465" x2="274" y2="519"/><line x1="429" y1="465" x2="429" y2="519"/><line x1="584" y1="465" x2="584" y2="519"/><line x1="739" y1="465" x2="739" y2="519"/><line x1="892" y1="465" x2="892" y2="519"/><line x1="1047" y1="465" x2="1047" y2="519"/><line x1="1201" y1="465" x2="1201" y2="519"/>
    </g>
    <g fill="#4f7fb0">
      <circle cx="235" cy="473" r="5"/><circle cx="235" cy="486" r="5"/><circle cx="274" cy="481" r="5"/><circle cx="313" cy="485" r="5"/><circle cx="428" cy="486" r="5"/><circle cx="467" cy="481" r="5"/><circle cx="545" cy="472" r="5"/><circle cx="545" cy="484" r="5"/><circle cx="583" cy="471" r="5"/><circle cx="621" cy="478" r="5"/><circle cx="622" cy="484" r="5"/><circle cx="660" cy="483" r="5"/><circle cx="814" cy="470" r="5"/><circle cx="852" cy="488" r="5"/><circle cx="969" cy="488" r="5"/><circle cx="1124" cy="484" r="5"/><circle cx="1162" cy="482" r="5"/><circle cx="1200" cy="486" r="5"/><circle cx="1239" cy="482" r="5"/>
    </g>
    <g fill="#f28e2b">
      <circle cx="158" cy="480" r="5"/><circle cx="197" cy="487" r="5"/><circle cx="351" cy="482" r="5"/><circle cx="506" cy="483" r="5"/><circle cx="583" cy="483" r="5"/><circle cx="660" cy="473" r="5"/><circle cx="699" cy="489" r="5"/><circle cx="737" cy="482" r="5"/><circle cx="776" cy="487" r="5"/><circle cx="815" cy="473" r="5"/><circle cx="853" cy="474" r="5"/><circle cx="891" cy="480" r="5"/><circle cx="930" cy="474" r="5"/><circle cx="1085" cy="477" r="5"/><circle cx="1124" cy="479" r="5"/><circle cx="1162" cy="479" r="5"/><circle cx="1201" cy="474" r="5"/><circle cx="1239" cy="475" r="5"/><circle cx="1278" cy="481" r="5"/>
    </g>
    <g font-size="15" fill="#64748b">
      <text x="115" y="541">4</text><text x="192" y="541">6</text><text x="269" y="541">8</text><text x="341" y="541">10</text><text x="499" y="541">14</text><text x="576" y="541">16</text><text x="654" y="541">18</text><text x="731" y="541">20</text><text x="807" y="541">22</text><text x="884" y="541">24</text><text x="961" y="541">26</text><text x="1077" y="541">29</text><text x="1115" y="541">30</text><text x="1192" y="541">32</text><text x="1270" y="541">34</text><text x="1338" y="541">36</text>
      <text x="55" y="496">50</text>
    </g>
    <text x="640" y="570" font-size="16">Study Hours Per Week</text>
    <text x="27" y="514" font-size="15" transform="rotate(-90 27 514)">Avera..</text>

    <text x="17" y="621" font-size="26">Attendance VS Marks</text>
    <line x1="77" y1="641" x2="1354" y2="641" stroke="#e5e7eb"/>
    <line x1="77" y1="698" x2="1354" y2="698" stroke="#e5e7eb"/>
    <g stroke="#edf2f7">
      <line x1="82" y1="641" x2="82" y2="698"/><line x1="203" y1="641" x2="203" y2="698"/><line x1="325" y1="641" x2="325" y2="698"/><line x1="447" y1="641" x2="447" y2="698"/><line x1="569" y1="641" x2="569" y2="698"/><line x1="691" y1="641" x2="691" y2="698"/><line x1="813" y1="641" x2="813" y2="698"/><line x1="935" y1="641" x2="935" y2="698"/><line x1="1057" y1="641" x2="1057" y2="698"/><line x1="1179" y1="641" x2="1179" y2="698"/>
    </g>
    <g fill="#4f7fb0">
      <circle cx="813" cy="649" r="5"/><circle cx="813" cy="657" r="5"/><circle cx="825" cy="651" r="5"/><circle cx="837" cy="647" r="5"/><circle cx="850" cy="657" r="5"/><circle cx="862" cy="649" r="5"/><circle cx="875" cy="648" r="5"/><circle cx="900" cy="657" r="5"/><circle cx="912" cy="652" r="5"/><circle cx="948" cy="659" r="5"/><circle cx="959" cy="652" r="5"/><circle cx="972" cy="660" r="5"/><circle cx="984" cy="652" r="5"/><circle cx="997" cy="653" r="5"/><circle cx="1033" cy="663" r="5"/><circle cx="1046" cy="652" r="5"/><circle cx="1058" cy="656" r="5"/><circle cx="1070" cy="650" r="5"/><circle cx="1082" cy="656" r="5"/><circle cx="1095" cy="649" r="5"/><circle cx="1107" cy="658" r="5"/><circle cx="1119" cy="657" r="5"/><circle cx="1143" cy="651" r="5"/><circle cx="1144" cy="662" r="5"/><circle cx="1168" cy="653" r="5"/><circle cx="1180" cy="648" r="5"/><circle cx="1193" cy="657" r="5"/><circle cx="1205" cy="662" r="5"/><circle cx="1217" cy="656" r="5"/><circle cx="1230" cy="654" r="5"/><circle cx="1243" cy="658" r="5"/><circle cx="1266" cy="660" r="5"/><circle cx="1279" cy="655" r="5"/><circle cx="1291" cy="652" r="5"/>
    </g>
    <g font-size="15" fill="#64748b">
      <text x="55" y="674">50</text>
      <text x="84" y="719">0</text><text x="138" y="719">5</text><text x="193" y="719">10</text><text x="255" y="719">15</text><text x="315" y="719">20</text><text x="376" y="719">25</text><text x="437" y="719">30</text><text x="498" y="719">35</text><text x="559" y="719">40</text><text x="620" y="719">45</text><text x="681" y="719">50</text><text x="742" y="719">55</text><text x="803" y="719">60</text><text x="864" y="719">65</text><text x="925" y="719">70</text><text x="986" y="719">75</text><text x="1047" y="719">80</text><text x="1108" y="719">85</text><text x="1169" y="719">90</text><text x="1230" y="719">95</text><text x="1289" y="719">100</text>
    </g>
    <text x="644" y="746" font-size="16">Attendance Rate Pct</text>
    <text x="27" y="690" font-size="15" transform="rotate(-90 27 690)">Avera..</text>
  </g>
</svg>
