<svg xmlns="http://www.w3.org/2000/svg" viewBox="0 0 1890 861" role="img" aria-labelledby="title desc">
  <title id="title">Website Traffic and Conversion Insights Dashboard</title>
  <desc id="desc">Traffic sessions, goal completions, page conversion rates, and engagement overview dashboard.</desc>
  <rect width="1890" height="861" fill="#fbfbfb"/>
  <g font-family="Inter, Segoe UI, Arial, sans-serif" fill="#0f172a">
    <rect x="10" y="13" width="1712" height="46" fill="#fff" stroke="#4b5563" stroke-width="2"/>
    <text x="517" y="46" font-size="31" font-weight="700">Website Traffic &amp; Conversion Insights Dashboard</text>
    <rect x="1724" y="13" width="20" height="62" fill="#525252"/>
    <text x="1728" y="31" font-size="18" fill="#fff">×</text>

    <text x="19" y="93" font-size="27">Traffic &amp; Conversion by Channel</text>
    <line x1="93" y1="112" x2="93" y2="449" stroke="#cbd5e1"/>
    <line x1="1640" y1="112" x2="1640" y2="449" stroke="#cbd5e1"/>
    <line x1="15" y1="132" x2="1718" y2="132" stroke="#cbd5e1"/>
    <line x1="15" y1="409" x2="1718" y2="409" stroke="#cbd5e1"/>
    <g stroke="#edf2f7">
      <line x1="93" y1="176" x2="1640" y2="176"/><line x1="93" y1="223" x2="1640" y2="223"/><line x1="93" y1="270" x2="1640" y2="270"/><line x1="93" y1="316" x2="1640" y2="316"/><line x1="93" y1="363" x2="1640" y2="363"/>
    </g>
    <text x="818" y="128" font-size="16">Traffic Source</text>
    <g fill="#f28c28">
      <rect x="132" y="277" width="232" height="132"/>
      <rect x="441" y="145" width="232" height="264"/>
      <rect x="751" y="272" width="232" height="137"/>
      <rect x="1060" y="273" width="232" height="136"/>
      <rect x="1369" y="276" width="232" height="133"/>
    </g>
    <polyline points="248,293 558,147 867,289 1176,292 1486,288" fill="none" stroke="#4778b0" stroke-width="3"/>
    <g font-size="15" fill="#64748b">
      <text x="50" y="182">500K</text><text x="50" y="229">400K</text><text x="50" y="276">300K</text><text x="50" y="322">200K</text><text x="50" y="369">100K</text><text x="69" y="403">0K</text>
      <text x="226" y="428">Direct</text><text x="502" y="428">Organic Search</text><text x="831" y="428">Paid Search</text><text x="1146" y="428">Referral</text><text x="1440" y="428">Social Media</text>
      <text x="1647" y="174">8K</text><text x="1647" y="233">6K</text><text x="1647" y="292">4K</text><text x="1647" y="351">2K</text><text x="1647" y="404">0K</text>
    </g>
    <text x="29" y="325" font-size="15" transform="rotate(-90 29 325)">Sessions</text>
    <text x="1706" y="329" font-size="15" transform="rotate(-90 1706 329)">Goal Completions</text>

    <g font-size="16">
      <text x="1728" y="35">Measure Names</text>
      <rect x="1732" y="45" width="14" height="14" fill="#4778b0"/><text x="1753" y="57" fill="#64748b">Goal Completions</text>
      <rect x="1732" y="66" width="14" height="14" fill="#f28c28"/><text x="1753" y="78" fill="#64748b">Sessions</text>
      <text x="1728" y="106">Bounce Rate %</text>
      <rect x="1732" y="116" width="142" height="15" fill="url(#bounce)"/><line x1="1802" y1="116" x2="1802" y2="133" stroke="#111827"/>
      <text x="1732" y="150" fill="#64748b">29.95</text><text x="1832" y="150" fill="#64748b">77.56</text>
      <text x="1728" y="180">Measure Values</text>
      <rect x="1732" y="189" width="142" height="15" fill="url(#values)"/>
      <text x="1732" y="222" fill="#64748b">3.42</text><text x="1832" y="222" fill="#64748b">50.17</text>
    </g>

    <text x="19" y="488" font-size="27">Page Conversion &amp; Bounce Rates</text>
    <text x="44" y="522" font-size="16">Page URL</text>
    <line x1="115" y1="528" x2="115" y2="783" stroke="#edf2f7"/>
    <g stroke="#edf2f7">
      <line x1="192" y1="528" x2="192" y2="783"/><line x1="269" y1="528" x2="269" y2="783"/><line x1="346" y1="528" x2="346" y2="783"/><line x1="423" y1="528" x2="423" y2="783"/><line x1="500" y1="528" x2="500" y2="783"/><line x1="577" y1="528" x2="577" y2="783"/><line x1="654" y1="528" x2="654" y2="783"/><line x1="731" y1="528" x2="731" y2="783"/><line x1="808" y1="528" x2="808" y2="783"/>
    </g>
    <g>
      <rect x="116" y="532" width="11" height="23" fill="#efc3b9"/>
      <rect x="116" y="565" width="11" height="23" fill="#efc3b9"/>
      <rect x="116" y="596" width="230" height="24" fill="#b30b3f"/>
      <rect x="116" y="628" width="721" height="24" fill="#b30b3f"/>
      <rect x="116" y="660" width="10" height="23" fill="#2f567f"/>
      <rect x="116" y="691" width="30" height="23" fill="#efc3b9"/>
      <rect x="116" y="723" width="12" height="23" fill="#efc3b9"/>
      <rect x="116" y="755" width="12" height="23" fill="#efc3b9"/>
    </g>
    <g font-size="15" fill="#64748b">
      <text x="62" y="549">/about</text><text x="29" y="581">/blog/news</text><text x="75" y="613">/cart</text><text x="44" y="645">/checkout</text><text x="53" y="676">/contact</text><text x="61" y="708">/home</text><text x="54" y="740">/pricing</text><text x="32" y="772">/products</text>
      <text x="118" y="805">0</text><text x="188" y="805">1</text><text x="265" y="805">2</text><text x="342" y="805">3</text><text x="419" y="805">4</text><text x="496" y="805">5</text><text x="573" y="805">6</text><text x="650" y="805">7</text><text x="727" y="805">8</text><text x="804" y="805">9</text>
    </g>
    <text x="407" y="833" font-size="16">Page Conversion Rate %</text>

    <text x="886" y="488" font-size="27">User Engagement Overview</text>
    <g font-size="16">
      <text x="886" y="542">Traffic Source</text>
      <text x="1052" y="542">Avg Bounce Rate %</text>
      <text x="1281" y="542">Avg Pages Per Session</text>
      <text x="1504" y="542">Avg Session Duration Mins</text>
      <rect x="1000" y="548" width="240" height="296" fill="#d4dce4"/>
      <rect x="1240" y="507" width="240" height="337" fill="#bee0f4"/>
      <rect x="1480" y="548" width="238" height="296" fill="#e9f0f4"/>
      <rect x="1240" y="507" width="240" height="41" fill="#87c8f3"/>
      <line x1="880" y1="548" x2="1718" y2="548" stroke="#cbd5e1"/>
      <line x1="880" y1="844" x2="1718" y2="844" stroke="#cbd5e1"/>
      <g fill="#111827">
        <text x="886" y="582">Direct</text><text x="886" y="642">Organic Search</text><text x="886" y="700">Paid Search</text><text x="886" y="760">Referral</text><text x="886" y="820">Social Media</text>
        <text x="1442" y="582" text-anchor="end">3.44</text><text x="1442" y="642" text-anchor="end">3.42</text><text x="1442" y="700" text-anchor="end">3.44</text><text x="1442" y="760" text-anchor="end">3.44</text><text x="1442" y="820" text-anchor="end">3.44</text>
      </g>
      <g fill="#ffffff">
        <text x="1236" y="582" text-anchor="end">50.16</text><text x="1236" y="642" text-anchor="end">50.09</text><text x="1236" y="700" text-anchor="end">50.14</text><text x="1236" y="760" text-anchor="end">49.91</text><text x="1236" y="820" text-anchor="end">50.17</text>
      </g>
      <g fill="#c8c8c8">
        <text x="1692" y="582" text-anchor="end">3.57</text><text x="1692" y="642" text-anchor="end">3.57</text><text x="1692" y="700" text-anchor="end">3.54</text><text x="1692" y="760" text-anchor="end">3.55</text><text x="1692" y="820" text-anchor="end">3.54</text>
      </g>
    </g>
  </g>
  <defs>
    <linearGradient id="bounce" x1="0" x2="1">
      <stop offset="0" stop-color="#b40426"/>
      <stop offset="0.55" stop-color="#f2d2c6"/>
      <stop offset="1" stop-color="#2c6693"/>
    </linearGradient>
    <linearGradient id="values" x1="0" x2="1">
      <stop offset="0" stop-color="#c7e1ee"/>
      <stop offset="1" stop-color="#2e5f88"/>
    </linearGradient>
  </defs>
</svg>
